# xmcd
#
# Track frame offsets:
#	150
#	11110
#	20873
#	38520
#	50454
#	61334
#	72681
#	90838
#	101285
#	114643
#	124714
#	135806
#	145839
#	157750
#	167796
#	178747
#	188728
#	200195
#	211144
#	222704
#	232162
#	245577
#	256664
#	267236
#
# Disc length: 3723 seconds
#
# Revision: 1
# Processed by: cddbd v1.5.2PL0 Copyright (c) Steve Scherf et al.
# Submitted via: audiograbber 1.83.01
#
DISCID=5a0e8918
DTITLE=Burl Ives - Eight classic albums CD 3
DYEAR=1900
DGENRE=Country
TTITLE0=Home on the range
TTITLE1=When the bloom is on the saga
TTITLE2=Cool water
TTITLE3=Empty pockets
TTITLE4=Mexicali rose
TTITLE5=The Oregon trail
TTITLE6=The last round-up
TTITLE7=Bury me not on the lone prairie
TTITLE8=Cowboy's dream
TTITLE9=Tumbling tumbleweeds
TTITLE10=My adobe hacienda
TTITLE11=Jingle jangle jingle
TTITLE12=Funny way of laughin
TTITLE13=Sixteen fathoms down
TTITLE14=Brooklyn bridge
TTITLE15=Ninety nine years
TTITLE16=Thumbin' Johnny Brown
TTITLE17=I ain't coming home tonight
TTITLE18=What you gonna do, Leroy
TTITLE19=In foggy old London
TTITLE20=That's all I can remember
TTITLE21=Mother woundn't do that
TTITLE22=Poor little Jimmy
TTITLE23=Call me Mr. in-between
EXTD=
EXTT0=
EXTT1=
EXTT2=
EXTT3=
EXTT4=
EXTT5=
EXTT6=
EXTT7=
EXTT8=
EXTT9=
EXTT10=
EXTT11=
EXTT12=
EXTT13=
EXTT14=
EXTT15=
EXTT16=
EXTT17=
EXTT18=
EXTT19=
EXTT20=
EXTT21=
EXTT22=
EXTT23=
PLAYORDER=
